<svg width="20" height="18" fill="none" xmlns="http://www.w3.org/2000/svg"><mask id="a" maskUnits="userSpaceOnUse" x="0" y="0" width="20" height="18"><path fill-rule="evenodd" clip-rule="evenodd" d="M14.302 6.825h4.168c.478 0 .87.392.87.87l-.026.235-2.21 8.065a1.748 1.748 0 01-1.68 1.27H4.115c-.8 0-1.47-.54-1.67-1.27L.234 7.93A.733.733 0 01.2 7.695c0-.478.391-.87.87-.87h4.167l3.81-5.698A.85.85 0 019.77.752c.278 0 .556.122.722.366l3.81 5.707zm-2.096 0L9.77 3.171 7.334 6.825h4.872zm3.219 8.7l-11.302.009L2.21 8.565h15.13l-1.914 6.96zm-7.395-3.48c0-.957.783-1.74 1.74-1.74s1.74.783 1.74 1.74-.783 1.74-1.74 1.74-1.74-.783-1.74-1.74z" fill="#fff"/></mask><g mask="url(#a)"><path fill="#3f51b5" d="M-2-3h24v24H-2z"/></g></svg>