<svg width="20" height="14" fill="none" xmlns="http://www.w3.org/2000/svg"><mask id="a" maskUnits="userSpaceOnUse" x="0" y="0" width="20" height="14"><path fill-rule="evenodd" clip-rule="evenodd" d="M7.113 7a3.339 3.339 0 003.335-3.335A3.339 3.339 0 007.113.33a3.339 3.339 0 00-3.335 3.335A3.339 3.339 0 007.113 7zm-6.67 5.002c0-2.22 4.44-3.335 6.67-3.335 2.23 0 6.67 1.115 6.67 3.335v1.668H.443v-1.668zm6.67-1.429c-1.705 0-3.64.639-4.44 1.191h8.88c-.8-.552-2.734-1.19-4.44-1.19zm1.43-6.908a1.43 1.43 0 10-2.859 0 1.428 1.428 0 102.859 0zm5.279 5.06c1.105.8 1.867 1.867 1.867 3.277v1.668H19.5v-1.668c0-1.924-3.334-3.02-5.678-3.277zm2.344-5.06A3.339 3.339 0 0112.83 7c-.515 0-.992-.124-1.43-.334.6-.848.953-1.886.953-3.001A5.184 5.184 0 0011.4.663c.438-.21.915-.333 1.43-.333a3.339 3.339 0 013.335 3.335z" fill="#fff"/></mask><g mask="url(#a)"><path fill="#66788A" d="M-2-5h24v24H-2z"/></g></svg>