<svg xmlns="http://www.w3.org/2000/svg" width="64" height="64"><defs><clipPath id="a"><path d="M31.533 24.857h14.293v20.01H17.24V19.14h14.293zM20.099 42.01h2.858v-2.86H20.1zm2.858-8.576H20.1v2.858h2.858zm-2.857-2.86h2.858v-2.858H20.1zM22.957 22H20.1v2.858h2.858zm2.859 20.01h2.858v-2.86h-2.858zm2.858-8.576h-2.858v2.858h2.858zm-2.858-2.859h2.858v-2.858h-2.858zM28.674 22h-2.858v2.858h2.858zm14.293 20.01V27.716H31.533v2.858h2.858v2.859h-2.858v2.858h2.858v2.859h-2.858v2.859zm-2.858-8.576H37.25v-2.859h2.859zM37.25 36.29h2.859v2.859H37.25z"/></clipPath></defs><path fill="#ec4c47" d="M32 64c17.673 0 32-14.327 32-32C64 14.327 49.673 0 32 0 14.327 0 0 14.327 0 32c0 17.673 14.327 32 32 32z"/><path d="M31.533 24.857h14.293v20.01H17.24V19.14h14.293zM20.099 42.01h2.858v-2.86H20.1zm2.858-8.576H20.1v2.858h2.858zm-2.857-2.86h2.858v-2.858H20.1zM22.957 22H20.1v2.858h2.858zm2.859 20.01h2.858v-2.86h-2.858zm2.858-8.576h-2.858v2.858h2.858zm-2.858-2.859h2.858v-2.858h-2.858zM28.674 22h-2.858v2.858h2.858zm14.293 20.01V27.716H31.533v2.858h2.858v2.859h-2.858v2.858h2.858v2.859h-2.858v2.859zm-2.858-8.576H37.25v-2.859h2.859zM37.25 36.29h2.859v2.859H37.25z"/><g clip-path="url(#a)"><path fill="#fff" d="M14 14h36v36H14z"/></g></svg>