<!DOCTYPE svg PUBLIC "-//W3C//DTD SVG 20010904//EN" "http://www.w3.org/TR/2001/REC-SVG-20010904/DTD/svg10.dtd">
<svg version="1.0" xmlns="http://www.w3.org/2000/svg" width="108px" height="109px" viewBox="0 0 1080 1090" preserveAspectRatio="xMidYMid meet">
<g id="layer101" fill="#4cb683" stroke="none">
 <path d="M447 786 c-5 -14 100 -402 123 -454 13 -29 54 -27 58 3 1 11 -26 119 -61 240 -60 210 -64 220 -89 223 -15 2 -28 -3 -31 -12z"/>
 <path d="M299 643 c-38 -36 -69 -74 -69 -82 0 -19 139 -161 157 -161 7 0 17 9 23 20 10 18 4 28 -44 78 l-55 57 55 57 c48 50 53 60 44 78 -17 32 -38 24 -111 -47z"/>
 <path d="M667 703 c-16 -16 -4 -42 43 -88 28 -27 50 -54 50 -59 0 -6 -23 -34 -51 -62 -52 -53 -58 -77 -23 -91 11 -4 38 17 90 68 41 40 74 78 74 84 0 6 -33 43 -73 83 -67 67 -93 82 -110 65z"/>
 </g>

</svg>