<svg xmlns="http://www.w3.org/2000/svg" width="64" height="64" viewBox="0 0 64 64"><defs><clipPath id="78afa"><path d="M20.314 41.272l8.576-8.59 5.717 5.717 12.149-13.664-2.016-2.015-10.133 11.391-5.717-5.717-10.72 10.734z"/></clipPath></defs><g><g><path fill="#1070ca" d="M32 64c17.673 0 32-14.327 32-32C64 14.327 49.673 0 32 0 14.327 0 0 14.327 0 32c0 17.673 14.327 32 32 32z"/></g><g><g/><g><path d="M20.314 41.272l8.576-8.59 5.717 5.717 12.149-13.664-2.016-2.015-10.133 11.391-5.717-5.717-10.72 10.734z"/></g><g clip-path="url(#78afa)"><g><path fill="#fff" d="M14 14h36v36H14z"/></g></g></g></g></svg>