<svg xmlns="http://www.w3.org/2000/svg" width="36" height="36"><path fill="#fff" d="M18.107 0C27.94 0 36 8.059 36 18.107 36 27.94 27.941 36 18.107 36 8.059 36 0 27.941 0 18.107A18.046 18.046 0 0118.107 0zm0 2.274A15.772 15.772 0 002.274 18.106c0 8.608 7.07 15.62 15.832 15.62 8.58 0 15.62-7.04 15.62-15.62 0-8.762-7.012-15.832-15.62-15.832z"/><path fill="#fff" d="M16.429 13.592a1.574 1.574 0 011.995-.007l4.21 3.423a1.34 1.34 0 001.33.21l1.986-.77a.56.56 0 01.535.069c.594.435 2.09 1.533 2.644 1.965a70.272 70.272 0 002.357 1.768s-.017-.39 0-.81c.36-8.722-6.254-15.05-13.684-14.939-7.422.115-13.42 6.065-13.3 14.334.011.697.117 1.415.117 1.415l1.89-1.415 2.297-1.654a.958.958 0 011.07-.035l.923.58c.21.132.48.114.671-.043z"/><path fill="#fff" d="M16.64 34.795c2.184.254 3.984-.126 4.609-.304.285-.081 1.35-.342 1.601-.426.841-.283 2.125-.882 2.856-1.318 1.095-.653 1.868-1.341 2.938-2.307 2.376-2.143 3.986-6.11 3.986-6.515 0-.091-4.41-3.413-5.706-4.387a.51.51 0 10-.728.69c.443.671 1.383 2.102 1.429 2.239.172.523-.073.818-.32.661-.245-.157-5.735-3.856-5.735-3.856l-3.285-2.27a.62.62 0 00-.973.51s-.111 1.61-.111 2.66c0 .427-.044.945-.56 1.079-.259.067-.913.107-.913.107l-5.548-.42a.41.41 0 00-.324.695s7.345 4.957 7.345 5.36c0 .858-2.644-.516-4.719-1.524-2.525-1.227-5.33-2.33-6.03-2.6a.366.366 0 00-.317.024c-.601.345-2.773 1.599-2.755 1.653.713 2.103 2.603 5.182 5.467 7.233 1.145.82 2.466 1.587 3.752 2.062 1.47.545 3.012.954 4.042.954z"/></svg>