<svg width="17" height="22" viewBox="0 0 17 22" fill="none" xmlns="http://www.w3.org/2000/svg">
<mask id="mask0" mask-type="alpha" maskUnits="userSpaceOnUse" x="0" y="0" width="17" height="22">
<path fill-rule="evenodd" clip-rule="evenodd" d="M14.1376 7.665H13.1848V5.75928C13.1848 3.1294 11.0504 0.994995 8.42046 0.994995C5.79058 0.994995 3.65618 3.1294 3.65618 5.75928H5.56189C5.56189 4.17754 6.83872 2.90071 8.42046 2.90071C10.0022 2.90071 11.279 4.17754 11.279 5.75928V7.665H2.70332C1.65518 7.665 0.797607 8.52257 0.797607 9.57071V19.0993C0.797607 20.1474 1.65518 21.005 2.70332 21.005H14.1376C15.1858 21.005 16.0433 20.1474 16.0433 19.0993V9.57071C16.0433 8.52257 15.1858 7.665 14.1376 7.665ZM2.70332 19.0993V9.57071H14.1376V19.0993H2.70332ZM10.3262 14.335C10.3262 15.3831 9.46861 16.2407 8.42046 16.2407C7.37232 16.2407 6.51475 15.3831 6.51475 14.335C6.51475 13.2869 7.37232 12.4293 8.42046 12.4293C9.46861 12.4293 10.3262 13.2869 10.3262 14.335Z" fill="white"/>
</mask>
<g mask="url(#mask0)">
<rect x="-4" y="-1" width="24" height="24" fill="#66788A"/>
</g>
</svg>
