<?xml version="1.0" standalone="no"?>
<!DOCTYPE svg PUBLIC "-//W3C//DTD SVG 20010904//EN"
 "http://www.w3.org/TR/2001/REC-SVG-20010904/DTD/svg10.dtd">
<svg version="1.0" xmlns="http://www.w3.org/2000/svg"
 width="129.899161pt" height="200.667868pt" viewBox="0 0 129.899161 200.667868"
 preserveAspectRatio="xMidYMid meet">
<metadata>
Created by potrace 1.12, written by Peter Selinger 2001-2015
</metadata>
<g transform="translate(-59.000000,220.673617) scale(0.100000,-0.100000)"
fill="#000000" stroke="none">
<path d="M1164 2204 c-46 -10 -69 -50 -74 -131 l-5 -76 -70 -14 c-158 -31
-300 -127 -362 -244 -26 -51 -28 -62 -28 -174 0 -140 14 -180 96 -269 82 -89
187 -133 484 -200 185 -42 250 -66 303 -112 82 -70 85 -182 6 -251 -57 -50
-121 -67 -254 -68 -135 0 -195 16 -259 71 -49 42 -67 74 -82 144 l-11 50 -159
0 -159 0 0 -50 c0 -106 60 -229 154 -318 77 -73 172 -117 319 -147 26 -5 27
-7 27 -76 0 -81 9 -103 50 -124 38 -20 161 -20 199 0 37 19 44 35 50 124 l6
74 76 18 c155 37 282 117 350 221 55 86 72 149 67 261 -4 116 -34 185 -111
260 -86 84 -175 120 -450 183 -264 59 -354 103 -378 184 -38 125 57 202 251
204 167 1 248 -41 289 -150 l19 -49 166 -3 166 -2 0 23 c0 85 -71 218 -160
300 -60 56 -163 105 -252 122 l-38 7 0 74 c0 67 -3 77 -29 106 -27 31 -33 33
-102 34 -41 1 -84 0 -95 -2z"/>
</g>
</svg>
