<svg xmlns="http://www.w3.org/2000/svg" width="48" height="38" viewBox="0 0 48 38"><defs><clipPath id="uoawa"><path d="M47.913-.06v38.114H.27V-.06zM12.18 28.526H7.416V9.469h4.765zm4.764 0a2.39 2.39 0 0 1-2.382-2.382V11.85a2.39 2.39 0 0 1 2.382-2.382h7.146a2.39 2.39 0 0 1 2.383 2.382v14.293a2.39 2.39 0 0 1-2.383 2.382zm14.293 0a2.39 2.39 0 0 1-2.382-2.382V11.85a2.39 2.39 0 0 1 2.382-2.382h7.146a2.39 2.39 0 0 1 2.382 2.382v14.293a2.39 2.39 0 0 1-2.382 2.382zm2.382-4.765h2.382v-9.528H33.62zm-14.293 0h2.382v-9.528h-2.382zM5.034 33.29H43.15V4.704H5.034z"/></clipPath></defs><g><g><g/><g><path d="M47.913-.06v38.114H.27V-.06zM12.18 28.526H7.416V9.469h4.765zm4.764 0a2.39 2.39 0 0 1-2.382-2.382V11.85a2.39 2.39 0 0 1 2.382-2.382h7.146a2.39 2.39 0 0 1 2.383 2.382v14.293a2.39 2.39 0 0 1-2.383 2.382zm14.293 0a2.39 2.39 0 0 1-2.382-2.382V11.85a2.39 2.39 0 0 1 2.382-2.382h7.146a2.39 2.39 0 0 1 2.382 2.382v14.293a2.39 2.39 0 0 1-2.382 2.382zm2.382-4.765h2.382v-9.528H33.62zm-14.293 0h2.382v-9.528h-2.382zM5.034 33.29H43.15V4.704H5.034z"/></g><g clip-path="url(#uoawa)"><g><path fill="#fff" d="M-5-11h60v60H-5z"/></g></g></g></g></svg>