<!DOCTYPE svg PUBLIC "-//W3C//DTD SVG 20010904//EN" "http://www.w3.org/TR/2001/REC-SVG-20010904/DTD/svg10.dtd">
<svg version="1.0" xmlns="http://www.w3.org/2000/svg" width="124px" height="124px" viewBox="0 0 1240 1240" preserveAspectRatio="xMidYMid meet">
<g id="layer101" fill="#fff" stroke="none">
 <path d="M555 1216 c-32 -14 -58 -46 -67 -83 -6 -23 -6 -23 118 -23 93 0 124 3 124 13 0 27 -42 79 -75 93 -42 17 -61 17 -100 0z"/>
 <path d="M120 1018 c0 -26 13 -47 60 -98 l60 -65 0 -185 c0 -203 9 -253 56 -341 33 -59 102 -119 168 -144 40 -15 44 -21 50 -58 10 -59 39 -87 92 -87 35 0 47 5 68 31 17 20 26 43 26 64 0 31 4 35 38 46 92 27 174 115 211 227 18 54 21 86 21 254 l0 194 65 64 c56 55 65 70 63 95 l-3 30 -487 3 -488 2 0 -32z m728 -325 c-3 -225 -3 -229 -30 -279 -32 -61 -71 -96 -133 -119 -93 -36 -217 3 -271 85 -47 70 -54 117 -54 337 l0 203 246 0 246 0 -4 -227z"/>
 </g>

</svg>